#define greypm_width 16
#define greypm_height 16
static char greypm_bits[] = {
   0x11, 0x11, 0x44, 0x44, 0x11, 0x11, 0x44, 0x44, 0x11, 0x11, 0x44, 0x44,
   0x11, 0x11, 0x44, 0x44, 0x11, 0x11, 0x44, 0x44, 0x11, 0x11, 0x44, 0x44,
   0x11, 0x11, 0x44, 0x44, 0x11, 0x11, 0x44, 0x44};
